<svg width="35" height="36" viewBox="0 0 35 36" fill="none" xmlns="http://www.w3.org/2000/svg">
<g clip-path="url(#clip0_1_157)">
<path d="M0 0.349976H35V35.6416H0V0.349976Z" fill="white"/>
<path d="M32.1355 27.2246C31.8793 25.6144 30.8379 24.2624 27.7538 23.001C26.6825 22.5045 25.4881 22.149 25.1321 21.3304C25.0057 20.854 24.9891 20.5856 25.0689 20.2971C25.2985 19.3612 26.4064 19.0693 27.2847 19.3377C27.8503 19.5289 28.3859 19.9684 28.7086 20.6695C30.2191 19.6832 30.2158 19.6899 31.2704 19.0123C30.8845 18.4085 30.6782 18.13 30.4254 17.8717C29.5171 16.8485 28.2795 16.3218 26.2999 16.3621C25.9572 16.4057 25.6112 16.4526 25.2685 16.4963C24.2804 16.7479 23.3389 17.2712 22.7866 17.9723C21.1298 19.8678 21.6022 23.1855 23.6183 24.5509C25.6046 26.0539 28.5223 26.396 28.895 27.8017C29.2576 29.5226 27.6407 30.0795 26.0337 29.8816C24.8493 29.6333 24.1906 29.0261 23.4786 27.9224C22.1678 28.6873 22.1678 28.6873 20.8204 29.469C21.1398 30.1735 21.4758 30.4922 22.0114 31.1027C24.5466 33.6959 30.8912 33.5684 32.029 29.6434C32.0756 29.5092 32.3817 28.6101 32.1355 27.2246ZM19.0271 16.57H15.7533C15.7533 19.4215 15.7401 22.2529 15.7401 25.1044C15.7401 26.9193 15.8332 28.5833 15.5404 29.0932C15.0613 30.0962 13.8204 29.9721 13.2548 29.7775C12.6792 29.4924 12.3864 29.0865 12.0471 28.5128C11.9539 28.3485 11.8841 28.221 11.8607 28.2109C10.9725 28.7577 10.0875 29.3079 9.19914 29.8547C9.64167 30.7706 10.2937 31.5656 11.1288 32.0822C12.3764 32.837 14.0532 33.0685 15.8066 32.6626C16.9478 32.3271 17.9325 31.6327 18.4482 30.576C19.1934 29.1905 19.0337 27.5131 19.0271 25.658C19.0437 22.632 19.0271 19.6061 19.0271 16.57Z" fill="#323330"/>
</g>
<defs>
<clipPath id="clip0_1_157">
<rect width="35" height="35.2917" fill="white" transform="translate(0 0.349976)"/>
</clipPath>
</defs>
</svg>
