<svg width="62" height="62" viewBox="0 0 62 62" fill="none" xmlns="http://www.w3.org/2000/svg">
<rect width="62" height="62" rx="31" fill="white"/>
<path d="M21.1332 55.7824L22.0135 50.1905L20.0525 50.145H10.6883L17.1959 8.88228C17.2153 8.75621 17.2793 8.64129 17.3764 8.55848C17.4734 8.47567 17.5969 8.43049 17.7245 8.43116H33.5139C38.7557 8.43116 42.3731 9.52194 44.2617 11.6749C45.1471 12.6849 45.711 13.7403 45.9837 14.9018C46.2699 16.1205 46.275 17.5765 45.9955 19.3524L45.9753 19.482V20.6199L46.8607 21.1216C47.5367 21.464 48.1443 21.9273 48.6535 22.4884C49.4109 23.3519 49.9008 24.4494 50.1078 25.7506C50.3216 27.0889 50.2509 28.6813 49.9008 30.4841C49.4968 32.5579 48.8437 34.3641 47.9616 35.842C47.1834 37.166 46.137 38.3127 44.8896 39.2086C43.718 40.0402 42.3259 40.6714 40.752 41.0754C39.227 41.4727 37.4881 41.673 35.5809 41.673H34.3521C33.4735 41.673 32.62 41.9894 31.9501 42.5567C31.2811 43.13 30.8373 43.9222 30.6977 44.7921L30.6051 45.2954L29.0497 55.1512L28.979 55.5131C28.9605 55.6275 28.9285 55.6848 28.8814 55.7235C28.8358 55.7608 28.7788 55.7816 28.7198 55.7824H21.1332Z" fill="#253B80"/>
<path d="M47.699 19.6133C47.6519 19.9147 47.598 20.2227 47.5374 20.5392C45.4552 31.2298 38.3314 34.923 29.2332 34.923H24.6008C23.4881 34.923 22.5505 35.7309 22.3771 36.8285L20.0053 51.8704L19.3337 56.1342C19.307 56.3034 19.3172 56.4763 19.3636 56.6411C19.4101 56.8059 19.4918 56.9587 19.603 57.0889C19.7141 57.2191 19.8522 57.3237 20.0077 57.3954C20.1632 57.4672 20.3324 57.5044 20.5036 57.5044H28.7198C29.6927 57.5044 30.5192 56.7975 30.6724 55.838L30.7532 55.4205L32.3002 45.6035L32.3995 45.0649C32.551 44.102 33.3792 43.395 34.3521 43.395H35.5809C43.5413 43.395 49.7728 40.1631 51.5942 30.8107C52.355 26.9037 51.9611 23.6415 49.9479 21.3471C49.3098 20.6374 48.5477 20.0499 47.699 19.6133Z" fill="#179BD7"/>
<path d="M45.5208 18.7447C44.856 18.5524 44.1796 18.4023 43.4958 18.2953C42.1447 18.0876 40.7791 17.988 39.4121 17.9973H27.0365C26.5655 17.997 26.11 18.1651 25.7522 18.4714C25.3943 18.7776 25.1579 19.2018 25.0856 19.6672L22.4529 36.3419L22.3771 36.8284C22.4592 36.2976 22.7284 35.8137 23.1363 35.4641C23.5442 35.1146 24.0637 34.9227 24.6008 34.9229H29.2332C38.3315 34.9229 45.4552 31.2281 47.5374 20.5391C47.5997 20.2227 47.6519 19.9146 47.699 19.6133C47.1496 19.3252 46.5769 19.0836 45.9871 18.8912C45.8325 18.8399 45.677 18.791 45.5208 18.7447Z" fill="#222D65"/>
<path d="M25.0856 19.6672C25.1573 19.2017 25.3936 18.7773 25.7516 18.4712C26.1096 18.1651 26.5655 17.9976 27.0365 17.999H39.4121C40.8783 17.999 42.2468 18.095 43.4958 18.297C44.341 18.4298 45.1745 18.6285 45.9888 18.8912C46.6032 19.0949 47.1738 19.3356 47.7007 19.6133C48.3202 15.6626 47.6957 12.9727 45.5596 10.537C43.2046 7.85547 38.9543 6.70746 33.5155 6.70746H17.7262C16.6152 6.70746 15.6675 7.51544 15.4958 8.61464L8.91915 50.3016C8.88851 50.4951 8.90017 50.693 8.95331 50.8816C9.00645 51.0702 9.09982 51.2451 9.22698 51.3942C9.35415 51.5433 9.51211 51.663 9.68998 51.7452C9.86785 51.8274 10.0614 51.8702 10.2574 51.8704H20.0054L22.4529 36.342L25.0856 19.6672Z" fill="#253B80"/>
</svg>
